<svg version="1.1" id="Layer_1" xmlns="http://www.w3.org/2000/svg" xmlns:xlink="http://www.w3.org/1999/xlink" x="0px" y="0px"
	 width="100%" viewBox="0 0 320 320" enable-background="new 0 0 320 320" xml:space="preserve">
<path fill="#47704C" opacity="1.000000" stroke="none" 
	d="
M179.000000,321.000000 
	C119.333351,321.000000 60.166710,321.000000 1.000048,321.000000 
	C1.000032,214.333389 1.000032,107.666786 1.000016,1.000134 
	C107.666565,1.000089 214.333130,1.000089 320.999756,1.000044 
	C320.999847,107.666534 320.999847,214.333069 320.999939,320.999817 
	C273.833344,321.000000 226.666672,321.000000 179.000000,321.000000 
M123.839859,77.317284 
	C121.825920,72.775894 109.345222,70.975815 106.559639,74.964272 
	C105.867073,75.955894 106.216446,77.675217 106.055885,79.686356 
	C106.065643,80.104156 106.075409,80.521950 105.847549,81.587067 
	C106.223076,84.182968 106.301468,86.865150 107.025787,89.359772 
	C110.089600,99.911713 113.339462,110.409698 116.532890,120.923897 
	C120.210213,133.031326 123.809494,145.163513 127.614922,157.230652 
	C130.261505,165.623047 132.278915,166.966934 140.889771,166.998184 
	C141.888916,167.001801 142.888153,167.003922 143.887253,166.995972 
	C152.075027,166.930786 153.933075,165.501236 155.890457,157.369476 
	C158.579071,146.199860 161.138809,134.999191 163.834946,123.831451 
	C164.300705,121.902168 165.169220,120.070129 166.226562,117.162231 
	C168.462708,122.262398 170.152451,126.116310 171.939560,130.624619 
	C171.988083,131.063004 172.036606,131.501389 171.847366,132.590225 
	C174.114731,142.254288 176.364639,151.922577 178.696304,161.571106 
	C178.825211,162.104523 179.632263,162.474075 180.089188,162.832535 
	C180.089188,162.832535 180.176834,162.798767 180.350906,163.534088 
	C181.988907,164.665726 183.489258,166.312317 185.300339,166.796432 
	C187.482193,167.379654 189.928101,167.001526 192.259537,166.993988 
	C200.995041,166.965729 202.838867,165.536774 205.405823,157.172943 
	C208.386246,147.461868 211.462265,137.780182 214.467896,128.076782 
	C218.656067,114.555595 222.838638,101.032578 226.977524,87.496262 
	C228.235321,83.382576 228.295914,79.541145 223.893097,77.164856 
	C223.893097,77.164856 223.823151,77.201271 223.649261,76.466316 
	C222.827774,75.488853 222.202499,74.085114 221.153366,73.602242 
	C213.641739,70.144928 205.841049,73.710114 203.669556,81.763756 
	C200.031754,95.255638 196.664276,108.820290 193.145142,122.344452 
	C192.670044,124.170311 191.975372,125.939041 191.382385,127.734215 
	C190.933411,127.738060 190.484436,127.741898 190.035477,127.745735 
	C189.509995,126.136330 188.872482,124.553940 188.476913,122.913208 
	C185.552567,110.783806 182.733841,98.628639 179.748871,86.514351 
	C178.892761,83.039986 178.444016,79.089790 173.994339,78.009743 
	C173.994339,78.009743 173.959518,78.069023 173.839859,77.317284 
	C172.117050,75.901711 170.441422,73.364975 168.662186,73.290100 
	C164.129242,73.099312 158.161194,70.874619 155.540527,76.037392 
	C153.283539,80.483658 153.155182,86.010429 152.012344,91.717270 
	C151.955612,92.154762 151.898880,92.592255 151.340286,93.479553 
	C150.255417,98.339523 149.170547,103.199501 148.012344,108.717270 
	C147.955627,109.154762 147.898895,109.592255 147.340286,110.479553 
	C146.255417,115.339523 145.170547,120.199501 144.012115,125.714653 
	C143.954987,126.150352 143.897842,126.586052 143.338577,127.233765 
	C139.476135,128.846893 139.698593,125.532852 139.192596,123.571877 
	C135.962616,111.054260 132.926620,98.486458 129.671738,85.975510 
	C128.816772,82.689247 128.220901,78.956657 123.994316,78.009735 
	C123.994316,78.009735 123.959572,78.069023 123.839859,77.317284 
M289.334076,205.451385 
	C286.439148,213.177734 283.515045,220.893478 280.701569,228.649384 
	C280.461975,229.309875 280.960022,230.237915 281.026947,231.806549 
	C281.032104,232.832855 281.037231,233.859146 281.158752,235.628220 
	C283.258514,240.538406 286.843750,241.589737 290.669281,237.618195 
	C303.286194,224.519760 310.872772,209.298172 308.793152,190.498642 
	C308.112885,184.348969 304.359283,180.248093 298.156708,178.844009 
	C281.835358,175.149338 266.480255,177.573044 252.447266,186.811523 
	C251.104034,187.695816 250.865860,190.258667 250.027145,192.749771 
	C250.032822,193.462341 250.038498,194.174911 250.163849,195.639725 
	C251.048431,200.611557 254.906952,199.999619 258.368958,199.896408 
	C261.648224,199.798645 264.920074,199.452530 268.195190,199.215637 
	C267.925201,200.682404 267.618622,201.117691 267.200745,201.306091 
	C265.227753,202.195679 263.259399,203.114883 261.226471,203.849472 
	C221.473114,218.214386 180.589355,223.805923 138.405411,220.126587 
	C108.933998,217.556076 80.585175,210.605255 53.387737,199.119217 
	C42.979099,194.723419 32.991077,189.337631 22.763557,184.504181 
	C18.503895,182.491104 17.086733,183.467346 17.026917,188.834869 
	C16.171177,192.656464 18.940924,194.522400 21.244127,196.631866 
	C23.167309,198.393295 25.108755,200.134781 27.178007,202.582535 
	C28.003244,203.783813 28.600405,205.268021 29.687548,206.144424 
	C49.589378,222.188690 71.766655,234.066895 96.049614,242.001328 
	C127.033562,252.125259 158.914627,253.177597 190.880402,249.737793 
	C223.151215,246.265137 252.986115,235.252121 279.723633,216.502304 
	C284.967407,212.825058 284.524841,206.993698 278.963837,204.036652 
	C278.963837,204.036652 278.940247,204.095306 278.870758,203.370819 
	C277.996124,199.365540 279.569427,197.468185 283.506683,198.879150 
	C285.900085,199.736816 287.926727,201.617889 290.018860,203.693085 
	C289.957001,204.128738 289.895172,204.564392 289.334076,205.451385 
M28.936420,147.627426 
	C28.986290,148.064789 29.036160,148.502136 28.855522,149.543472 
	C28.184862,153.066818 29.761230,155.101974 33.655373,156.333710 
	C42.892151,167.929367 63.280575,167.004333 74.592522,160.174728 
	C83.302963,154.915817 83.373978,155.033432 90.165771,163.615387 
	C91.356911,168.054062 94.196320,168.537247 97.814369,166.641144 
	C99.724281,165.640213 101.408691,164.215851 103.294624,163.160919 
	C107.594475,160.755737 108.119423,157.773514 106.274178,153.154358 
	C104.467186,148.630966 103.450760,143.595245 103.136856,138.716858 
	C102.635033,130.918060 103.161072,123.059036 102.946259,115.233879 
	C102.791412,109.592896 102.825371,103.800705 101.523247,98.376472 
	C100.093544,92.420807 98.695068,85.868484 91.529030,82.783005 
	C91.300598,82.591331 91.112007,82.366280 90.857971,81.377022 
	C89.930878,76.566917 85.956116,74.859428 82.148407,73.346474 
	C72.391098,69.469490 62.153927,70.272362 52.235180,71.963493 
	C46.558834,72.931297 41.204357,76.101936 35.902512,78.686104 
	C34.839104,79.204422 34.668903,81.555305 34.047291,83.964386 
	C34.043808,87.273552 34.040325,90.582710 34.154156,94.641838 
	C35.163303,99.552200 38.646072,99.330803 42.257080,98.366333 
	C46.099030,97.340187 49.809364,95.787094 53.676834,94.897278 
	C64.194923,92.477341 74.515549,91.123146 80.916039,103.801216 
	C80.977821,105.186386 81.039604,106.571548 80.341202,108.210457 
	C75.419220,107.951614 70.478828,107.879494 65.578941,107.396492 
	C54.075180,106.262535 43.759689,108.952637 35.346184,117.037788 
	C30.638361,121.561859 26.815268,126.817429 28.046741,134.956161 
	C28.059908,137.950897 28.073072,140.945648 27.896156,144.413315 
	C28.211256,145.266876 28.526354,146.120438 28.936420,147.627426 
M293.968170,136.706146 
	C293.119720,126.217720 287.266968,119.599602 277.678131,116.109634 
	C270.643768,113.549400 263.435913,111.464973 256.406677,108.891769 
	C252.241241,107.366928 248.572525,104.943024 248.091599,99.927727 
	C247.470612,93.452011 251.756256,89.010384 260.085297,89.247681 
	C267.433746,89.457047 274.833588,90.905388 282.024811,92.597160 
	C287.490295,93.882950 288.834656,93.498825 288.983093,88.062134 
	C289.156555,81.710754 287.189636,78.332718 280.451202,77.286606 
	C271.650818,75.920380 262.567169,74.726929 253.768204,75.447411 
	C244.133789,76.236290 236.011490,81.403542 232.017670,90.844345 
	C226.483536,103.926231 233.227310,118.183029 246.927979,123.094093 
	C254.902084,125.952438 263.122498,128.226639 270.857635,131.617722 
	C277.695343,134.615356 278.257019,143.291016 271.949738,147.370316 
	C268.780090,149.420334 264.617065,150.403168 260.782776,150.862198 
	C251.973831,151.916763 243.694992,149.300156 235.468521,146.371292 
	C233.840332,145.791626 230.577545,146.457748 229.716888,147.695511 
	C227.146942,151.391525 229.236938,158.123978 233.493698,160.099960 
	C248.182571,166.918533 263.310791,168.473785 278.366241,161.673645 
	C288.433990,157.126312 293.903107,148.934921 293.968170,136.706146 
z"/>
<path fill="#252F3E" opacity="1.000000" stroke="none" 
	d="
M106.085167,80.939751 
	C106.075409,80.521950 106.065643,80.104156 106.367210,79.128372 
	C112.438881,78.403267 118.199226,78.236145 123.959572,78.069023 
	C123.959572,78.069023 123.994316,78.009735 124.124313,78.358551 
	C129.404083,98.203224 134.553864,117.699081 139.703629,137.194946 
	C140.363235,137.129593 141.022842,137.064255 141.682449,136.998901 
	C142.401871,133.673187 143.121292,130.347473 143.840698,127.021751 
	C143.897842,126.586052 143.954987,126.150352 144.259430,125.079315 
	C145.618546,119.639229 146.730362,114.834488 147.842163,110.029747 
	C147.898895,109.592255 147.955627,109.154762 148.259521,108.080620 
	C149.618530,102.639229 150.730347,97.834488 151.842163,93.029747 
	C151.898880,92.592255 151.955612,92.154762 152.259140,91.082092 
	C153.405701,87.279419 154.014313,83.984245 155.324432,80.996719 
	C156.009689,79.434128 157.890427,77.382881 159.295303,77.332298 
	C164.168213,77.156853 169.069214,77.761299 173.959518,78.069016 
	C173.959518,78.069023 173.994339,78.009743 174.125839,78.361832 
	C174.813477,80.451843 175.484467,82.162285 175.907883,83.931953 
	C179.893478,100.590103 183.820816,117.262199 187.820892,133.916840 
	C188.163635,135.343933 188.908722,136.674408 189.466904,138.049759 
	C191.124313,136.351028 191.716675,134.844635 192.116928,133.288834 
	C196.137054,117.662338 200.107010,102.022919 204.130234,86.397217 
	C206.482529,77.261185 206.862442,76.987900 216.330719,77.009743 
	C218.828323,77.015503 221.325684,77.134354 223.823151,77.201271 
	C223.823151,77.201271 223.893097,77.164856 223.866882,77.559845 
	C223.532272,80.236206 223.533585,82.612518 222.867905,84.784378 
	C215.624191,108.417549 208.172104,131.987366 201.036575,155.652771 
	C199.448898,160.918411 196.852188,163.621017 191.132706,163.051071 
	C187.508362,162.689896 183.830627,162.864456 180.176834,162.798767 
	C180.176834,162.798767 180.089188,162.832535 180.079651,162.480194 
	C177.408447,152.065155 174.746796,142.002457 172.085129,131.939774 
	C172.036606,131.501389 171.988083,131.063004 171.896729,129.904648 
	C169.945374,121.301254 168.713013,113.208954 164.794434,105.724220 
	C163.373764,107.677719 162.585876,109.577080 162.107010,111.551392 
	C158.469101,126.550156 154.813629,141.545578 151.343399,156.583542 
	C150.316742,161.032455 147.950958,162.960342 143.368393,163.041443 
	C131.406372,163.253204 131.407059,163.365860 127.828552,151.840668 
	C127.533455,150.890213 127.285255,149.925232 126.992981,148.973862 
	C120.025558,126.295250 113.055077,103.617592 106.085167,80.939751 
z"/>
<path fill="#FF9900" opacity="1.000000" stroke="none" 
	d="
M27.042103,201.885101 
	C25.108755,200.134781 23.167309,198.393295 21.244127,196.631866 
	C18.940924,194.522400 16.171177,192.656464 17.399431,188.276855 
	C19.166733,187.649811 20.799225,187.069000 21.920101,187.589661 
	C35.418499,193.859619 48.590160,200.903442 62.337227,206.552582 
	C88.919693,217.476212 116.898987,223.253601 145.482010,224.754395 
	C165.245987,225.792145 185.102539,225.539001 204.876068,222.205276 
	C225.145920,218.787872 244.828751,213.737762 264.087982,206.624130 
	C268.704468,204.918976 273.316315,200.790283 278.940247,204.095306 
	C278.940247,204.095306 278.963837,204.036652 279.078491,204.352417 
	C281.196716,207.846802 280.877380,210.363571 277.356171,212.321365 
	C266.477051,218.370102 256.001007,225.276138 244.728043,230.455536 
	C224.157837,239.906570 202.213089,245.532181 179.700974,246.700607 
	C158.452972,247.803421 137.072037,248.013931 115.920822,243.161545 
	C92.186218,237.716522 69.714180,229.513611 49.074982,216.558578 
	C41.604061,211.869156 34.379223,206.787689 27.042103,201.885101 
z"/>
<path fill="#252F3E" opacity="1.000000" stroke="none" 
	d="
M81.101379,107.956718 
	C81.039604,106.571548 80.977821,105.186386 80.886322,103.010078 
	C79.824371,94.879639 75.819176,90.968445 68.298416,89.701538 
	C58.828655,88.106308 50.320938,90.965477 41.597557,93.626190 
	C39.267105,94.336990 36.567154,93.836349 34.036842,93.891876 
	C34.040325,90.582710 34.043808,87.273552 34.352058,83.326157 
	C53.322716,72.504738 72.075897,70.794876 90.963249,82.107841 
	C91.112007,82.366280 91.300598,82.591331 91.881584,83.211678 
	C97.669579,90.927818 99.074394,99.311821 99.015221,108.137764 
	C98.949409,117.953766 98.766411,127.779305 99.125526,137.582703 
	C99.267616,141.461624 100.887138,145.265945 101.544350,149.153198 
	C102.035446,152.057953 103.381645,156.391052 102.027184,157.715286 
	C98.983452,160.691132 95.573242,164.883713 90.037155,162.889526 
	C83.373978,155.033432 83.302963,154.915817 74.592522,160.174728 
	C63.280575,167.004333 42.892151,167.929367 33.216209,155.850189 
	C31.546709,153.224274 30.316368,151.081894 29.086029,148.939499 
	C29.036160,148.502136 28.986290,148.064789 28.898266,146.979889 
	C28.602152,145.535034 28.344194,144.737701 28.086237,143.940384 
	C28.073072,140.945648 28.059908,137.950897 28.274399,134.215302 
	C31.952442,121.159920 40.181160,113.673431 52.655540,112.262505 
	C60.553574,111.369194 68.719315,112.473648 76.732590,113.098000 
	C82.076057,113.514336 82.447701,113.381012 81.101379,107.956718 
M56.307514,125.443367 
	C49.345943,128.134949 46.930332,131.660568 47.012211,139.010010 
	C47.074009,144.557159 49.744247,148.805664 54.193192,150.435364 
	C67.141998,155.178650 82.954361,143.414032 81.754295,129.724670 
	C81.633560,128.347397 79.568909,126.138199 78.268333,126.033699 
	C71.233475,125.468491 64.155128,125.444702 56.307514,125.443367 
z"/>
<path fill="#252F3E" opacity="1.000000" stroke="none" 
	d="
M293.974609,137.143433 
	C293.903107,148.934921 288.433990,157.126312 278.366241,161.673645 
	C263.310791,168.473785 248.182571,166.918533 233.493698,160.099960 
	C229.236938,158.123978 227.146942,151.391525 229.716888,147.695511 
	C230.577545,146.457748 233.840332,145.791626 235.468521,146.371292 
	C243.694992,149.300156 251.973831,151.916763 260.782776,150.862198 
	C264.617065,150.403168 268.780090,149.420334 271.949738,147.370316 
	C278.257019,143.291016 277.695343,134.615356 270.857635,131.617722 
	C263.122498,128.226639 254.902084,125.952438 246.927979,123.094093 
	C233.227310,118.183029 226.483536,103.926231 232.017670,90.844345 
	C236.011490,81.403542 244.133789,76.236290 253.768204,75.447411 
	C262.567169,74.726929 271.650818,75.920380 280.451202,77.286606 
	C287.189636,78.332718 289.156555,81.710754 288.983093,88.062134 
	C288.834656,93.498825 287.490295,93.882950 282.024811,92.597160 
	C274.833588,90.905388 267.433746,89.457047 260.085297,89.247681 
	C251.756256,89.010384 247.470612,93.452011 248.091599,99.927727 
	C248.572525,104.943024 252.241241,107.366928 256.406677,108.891769 
	C263.435913,111.464973 270.643768,113.549400 277.678131,116.109634 
	C287.266968,119.599602 293.119720,126.217720 293.974609,137.143433 
z"/>
<path fill="#47704C" opacity="1.000000" stroke="none" 
	d="
M278.905518,203.733063 
	C273.316315,200.790283 268.704468,204.918976 264.087982,206.624130 
	C244.828751,213.737762 225.145920,218.787872 204.876068,222.205276 
	C185.102539,225.539001 165.245987,225.792145 145.482010,224.754395 
	C116.898987,223.253601 88.919693,217.476212 62.337227,206.552582 
	C48.590160,200.903442 35.418499,193.859619 21.920101,187.589661 
	C20.799225,187.069000 19.166733,187.649811 17.443333,187.880554 
	C17.086733,183.467346 18.503895,182.491104 22.763557,184.504181 
	C32.991077,189.337631 42.979099,194.723419 53.387737,199.119217 
	C80.585175,210.605255 108.933998,217.556076 138.405411,220.126587 
	C180.589355,223.805923 221.473114,218.214386 261.226471,203.849472 
	C263.259399,203.114883 265.227753,202.195679 267.200745,201.306091 
	C267.618622,201.117691 267.925201,200.682404 268.195190,199.215637 
	C264.920074,199.452530 261.648224,199.798645 258.368958,199.896408 
	C254.906952,199.999619 251.048431,200.611557 250.468674,195.455902 
	C253.495438,195.352921 256.218475,195.528656 258.939087,195.497208 
	C267.907684,195.393616 276.886230,194.900024 285.838623,195.206665 
	C289.919891,195.346466 291.347778,198.745087 290.118134,203.039230 
	C287.926727,201.617889 285.900085,199.736816 283.506683,198.879150 
	C279.569427,197.468185 277.996124,199.365540 278.905518,203.733063 
z"/>
<path fill="#FF9900" opacity="1.000000" stroke="none" 
	d="
M290.068481,203.366150 
	C291.347778,198.745087 289.919891,195.346466 285.838623,195.206665 
	C276.886230,194.900024 267.907684,195.393616 258.939087,195.497208 
	C256.218475,195.528656 253.495438,195.352921 250.408844,195.079788 
	C250.038498,194.174911 250.032822,193.462341 250.374146,192.246262 
	C251.440277,191.052277 252.054886,190.179352 252.894104,189.698380 
	C268.000061,181.040924 284.022736,179.032730 300.796600,183.498215 
	C302.386597,183.921509 304.685822,185.692459 304.808990,187.010361 
	C306.581299,205.972275 300.200226,221.974655 286.328186,234.903290 
	C285.388245,235.779327 282.841736,234.931534 281.042389,234.885452 
	C281.037231,233.859146 281.032104,232.832855 281.371216,231.228180 
	C284.421448,222.099899 287.127380,213.549973 289.833313,205.000046 
	C289.895172,204.564392 289.957001,204.128738 290.068481,203.366150 
z"/>
<path fill="#47704C" opacity="1.000000" stroke="none" 
	d="
M27.110052,202.233826 
	C34.379223,206.787689 41.604061,211.869156 49.074982,216.558578 
	C69.714180,229.513611 92.186218,237.716522 115.920822,243.161545 
	C137.072037,248.013931 158.452972,247.803421 179.700974,246.700607 
	C202.213089,245.532181 224.157837,239.906570 244.728043,230.455536 
	C256.001007,225.276138 266.477051,218.370102 277.356171,212.321365 
	C280.877380,210.363571 281.196716,207.846802 279.049133,204.364151 
	C284.524841,206.993698 284.967407,212.825058 279.723633,216.502304 
	C252.986115,235.252121 223.151215,246.265137 190.880402,249.737793 
	C158.914627,253.177597 127.033562,252.125259 96.049614,242.001328 
	C71.766655,234.066895 49.589378,222.188690 29.687548,206.144424 
	C28.600405,205.268021 28.003244,203.783813 27.110052,202.233826 
z"/>
<path fill="#47704C" opacity="1.000000" stroke="none" 
	d="
M105.966354,81.263412 
	C113.055077,103.617592 120.025558,126.295250 126.992981,148.973862 
	C127.285255,149.925232 127.533455,150.890213 127.828552,151.840668 
	C131.407059,163.365860 131.406372,163.253204 143.368393,163.041443 
	C147.950958,162.960342 150.316742,161.032455 151.343399,156.583542 
	C154.813629,141.545578 158.469101,126.550156 162.107010,111.551392 
	C162.585876,109.577080 163.373764,107.677719 164.794434,105.724220 
	C168.713013,113.208954 169.945374,121.301254 171.848022,129.577454 
	C170.152451,126.116310 168.462708,122.262398 166.226562,117.162231 
	C165.169220,120.070129 164.300705,121.902168 163.834946,123.831451 
	C161.138809,134.999191 158.579071,146.199860 155.890457,157.369476 
	C153.933075,165.501236 152.075027,166.930786 143.887253,166.995972 
	C142.888153,167.003922 141.888916,167.001801 140.889771,166.998184 
	C132.278915,166.966934 130.261505,165.623047 127.614922,157.230652 
	C123.809494,145.163513 120.210213,133.031326 116.532890,120.923897 
	C113.339462,110.409698 110.089600,99.911713 107.025787,89.359772 
	C106.301468,86.865150 106.223076,84.182968 105.966354,81.263412 
z"/>
<path fill="#47704C" opacity="1.000000" stroke="none" 
	d="
M281.100586,235.256836 
	C282.841736,234.931534 285.388245,235.779327 286.328186,234.903290 
	C300.200226,221.974655 306.581299,205.972275 304.808990,187.010361 
	C304.685822,185.692459 302.386597,183.921509 300.796600,183.498215 
	C284.022736,179.032730 268.000061,181.040924 252.894104,189.698380 
	C252.054886,190.179352 251.440277,191.052277 250.417908,191.892517 
	C250.865860,190.258667 251.104034,187.695816 252.447266,186.811523 
	C266.480255,177.573044 281.835358,175.149338 298.156708,178.844009 
	C304.359283,180.248093 308.112885,184.348969 308.793152,190.498642 
	C310.872772,209.298172 303.286194,224.519760 290.669281,237.618195 
	C286.843750,241.589737 283.258514,240.538406 281.100586,235.256836 
z"/>
<path fill="#47704C" opacity="1.000000" stroke="none" 
	d="
M180.263870,163.166428 
	C183.830627,162.864456 187.508362,162.689896 191.132706,163.051071 
	C196.852188,163.621017 199.448898,160.918411 201.036575,155.652771 
	C208.172104,131.987366 215.624191,108.417549 222.867905,84.784378 
	C223.533585,82.612518 223.532272,80.236206 223.833069,77.539581 
	C228.295914,79.541145 228.235321,83.382576 226.977524,87.496262 
	C222.838638,101.032578 218.656067,114.555595 214.467896,128.076782 
	C211.462265,137.780182 208.386246,147.461868 205.405823,157.172943 
	C202.838867,165.536774 200.995041,166.965729 192.259537,166.993988 
	C189.928101,167.001526 187.482193,167.379654 185.300339,166.796432 
	C183.489258,166.312317 181.988907,164.665726 180.263870,163.166428 
z"/>
<path fill="#47704C" opacity="1.000000" stroke="none" 
	d="
M223.736206,76.833794 
	C221.325684,77.134354 218.828323,77.015503 216.330719,77.009743 
	C206.862442,76.987900 206.482529,77.261185 204.130234,86.397217 
	C200.107010,102.022919 196.137054,117.662338 192.116928,133.288834 
	C191.716675,134.844635 191.124313,136.351028 189.466904,138.049759 
	C188.908722,136.674408 188.163635,135.343933 187.820892,133.916840 
	C183.820816,117.262199 179.893478,100.590103 175.907883,83.931953 
	C175.484467,82.162285 174.813477,80.451843 174.094498,78.375809 
	C178.444016,79.089790 178.892761,83.039986 179.748871,86.514351 
	C182.733841,98.628639 185.552567,110.783806 188.476913,122.913208 
	C188.872482,124.553940 189.509995,126.136330 190.035477,127.745735 
	C190.484436,127.741898 190.933411,127.738060 191.382385,127.734215 
	C191.975372,125.939041 192.670044,124.170311 193.145142,122.344452 
	C196.664276,108.820290 200.031754,95.255638 203.669556,81.763756 
	C205.841049,73.710114 213.641739,70.144928 221.153366,73.602242 
	C222.202499,74.085114 222.827774,75.488853 223.736206,76.833794 
z"/>
<path fill="#47704C" opacity="1.000000" stroke="none" 
	d="
M90.101463,163.252457 
	C95.573242,164.883713 98.983452,160.691132 102.027184,157.715286 
	C103.381645,156.391052 102.035446,152.057953 101.544350,149.153198 
	C100.887138,145.265945 99.267616,141.461624 99.125526,137.582703 
	C98.766411,127.779305 98.949409,117.953766 99.015221,108.137764 
	C99.074394,99.311821 97.669579,90.927818 92.063034,83.337982 
	C98.695068,85.868484 100.093544,92.420807 101.523247,98.376472 
	C102.825371,103.800705 102.791412,109.592896 102.946259,115.233879 
	C103.161072,123.059036 102.635033,130.918060 103.136856,138.716858 
	C103.450760,143.595245 104.467186,148.630966 106.274178,153.154358 
	C108.119423,157.773514 107.594475,160.755737 103.294624,163.160919 
	C101.408691,164.215851 99.724281,165.640213 97.814369,166.641144 
	C94.196320,168.537247 91.356911,168.054062 90.101463,163.252457 
z"/>
<path fill="#47704C" opacity="1.000000" stroke="none" 
	d="
M80.721291,108.083588 
	C82.447701,113.381012 82.076057,113.514336 76.732590,113.098000 
	C68.719315,112.473648 60.553574,111.369194 52.655540,112.262505 
	C40.181160,113.673431 31.952442,121.159920 28.293911,133.766968 
	C26.815268,126.817429 30.638361,121.561859 35.346184,117.037788 
	C43.759689,108.952637 54.075180,106.262535 65.578941,107.396492 
	C70.478828,107.879494 75.419220,107.951614 80.721291,108.083588 
z"/>
<path fill="#47704C" opacity="1.000000" stroke="none" 
	d="
M90.910614,81.742432 
	C72.075897,70.794876 53.322716,72.504738 34.371849,82.874588 
	C34.668903,81.555305 34.839104,79.204422 35.902512,78.686104 
	C41.204357,76.101936 46.558834,72.931297 52.235180,71.963493 
	C62.153927,70.272362 72.391098,69.469490 82.148407,73.346474 
	C85.956116,74.859428 89.930878,76.566917 90.910614,81.742432 
z"/>
<path fill="#47704C" opacity="1.000000" stroke="none" 
	d="
M34.095497,94.266861 
	C36.567154,93.836349 39.267105,94.336990 41.597557,93.626190 
	C50.320938,90.965477 58.828655,88.106308 68.298416,89.701538 
	C75.819176,90.968445 79.824371,94.879639 80.849167,102.595718 
	C74.515549,91.123146 64.194923,92.477341 53.676834,94.897278 
	C49.809364,95.787094 46.099030,97.340187 42.257080,98.366333 
	C38.646072,99.330803 35.163303,99.552200 34.095497,94.266861 
z"/>
<path fill="#47704C" opacity="1.000000" stroke="none" 
	d="
M143.589630,127.127762 
	C143.121292,130.347473 142.401871,133.673187 141.682449,136.998901 
	C141.022842,137.064255 140.363235,137.129593 139.703629,137.194946 
	C134.553864,117.699081 129.404083,98.203224 124.092995,78.372528 
	C128.220901,78.956657 128.816772,82.689247 129.671738,85.975510 
	C132.926620,98.486458 135.962616,111.054260 139.192596,123.571877 
	C139.698593,125.532852 139.476135,128.846893 143.589630,127.127762 
z"/>
<path fill="#47704C" opacity="1.000000" stroke="none" 
	d="
M173.899689,77.693146 
	C169.069214,77.761299 164.168213,77.156853 159.295303,77.332298 
	C157.890427,77.382881 156.009689,79.434128 155.324432,80.996719 
	C154.014313,83.984245 153.405701,87.279419 152.295807,90.753189 
	C153.155182,86.010429 153.283539,80.483658 155.540527,76.037392 
	C158.161194,70.874619 164.129242,73.099312 168.662186,73.290100 
	C170.441422,73.364975 172.117050,75.901711 173.899689,77.693146 
z"/>
<path fill="#47704C" opacity="1.000000" stroke="none" 
	d="
M123.899719,77.693153 
	C118.199226,78.236145 112.438881,78.403267 106.382713,78.815231 
	C106.216446,77.675217 105.867073,75.955894 106.559639,74.964272 
	C109.345222,70.975815 121.825920,72.775894 123.899719,77.693153 
z"/>
<path fill="#47704C" opacity="1.000000" stroke="none" 
	d="
M171.966248,132.264999 
	C174.746796,142.002457 177.408447,152.065155 180.096893,162.523865 
	C179.632263,162.474075 178.825211,162.104523 178.696304,161.571106 
	C176.364639,151.922577 174.114731,142.254288 171.966248,132.264999 
z"/>
<path fill="#47704C" opacity="1.000000" stroke="none" 
	d="
M289.583679,205.225708 
	C287.127380,213.549973 284.421448,222.099899 281.415466,230.845734 
	C280.960022,230.237915 280.461975,229.309875 280.701569,228.649384 
	C283.515045,220.893478 286.439148,213.177734 289.583679,205.225708 
z"/>
<path fill="#47704C" opacity="1.000000" stroke="none" 
	d="
M147.591232,110.254654 
	C146.730362,114.834488 145.618546,119.639229 144.296204,124.751724 
	C145.170547,120.199501 146.255417,115.339523 147.591232,110.254654 
z"/>
<path fill="#47704C" opacity="1.000000" stroke="none" 
	d="
M151.591217,93.254654 
	C150.730347,97.834488 149.618530,102.639229 148.296204,107.751724 
	C149.170547,103.199501 150.255417,98.339523 151.591217,93.254654 
z"/>
<path fill="#47704C" opacity="1.000000" stroke="none" 
	d="
M28.970776,149.241486 
	C30.316368,151.081894 31.546709,153.224274 32.942604,155.665573 
	C29.761230,155.101974 28.184862,153.066818 28.970776,149.241486 
z"/>
<path fill="#47704C" opacity="1.000000" stroke="none" 
	d="
M27.991196,144.176849 
	C28.344194,144.737701 28.602152,145.535034 28.850780,146.653168 
	C28.526354,146.120438 28.211256,145.266876 27.991196,144.176849 
z"/>
<path fill="#47704C" opacity="1.000000" stroke="none" 
	d="
M56.699638,125.338837 
	C64.155128,125.444702 71.233475,125.468491 78.268333,126.033699 
	C79.568909,126.138199 81.633560,128.347397 81.754295,129.724670 
	C82.954361,143.414032 67.141998,155.178650 54.193192,150.435364 
	C49.744247,148.805664 47.074009,144.557159 47.012211,139.010010 
	C46.930332,131.660568 49.345943,128.134949 56.699638,125.338837 
z"/>
</svg>